<?xml version="1.0" encoding="UTF-8" standalone="no"?>
<svg
   xmlns:dc="http://purl.org/dc/elements/1.1/"
   xmlns:cc="http://creativecommons.org/ns#"
   xmlns:rdf="http://www.w3.org/1999/02/22-rdf-syntax-ns#"
   xmlns:svg="http://www.w3.org/2000/svg"
   xmlns="http://www.w3.org/2000/svg"
   xmlns:sodipodi="http://sodipodi.sourceforge.net/DTD/sodipodi-0.dtd"
   xmlns:inkscape="http://www.inkscape.org/namespaces/inkscape"
   version="1.1"
   id="Layer_1"
   x="0px"
   y="0px"
   width="100%"
   viewBox="0 0 592 647"
   enable-background="new 0 0 592 647"
   xml:space="preserve"
   sodipodi:docname="book.svg"
   inkscape:version="0.92.5 (2060ec1f9f, 2020-04-08)"><metadata
   id="metadata17"><rdf:RDF><cc:Work
       rdf:about=""><dc:format>image/svg+xml</dc:format><dc:type
         rdf:resource="http://purl.org/dc/dcmitype/StillImage" /><dc:title></dc:title></cc:Work></rdf:RDF></metadata><defs
   id="defs15" /><sodipodi:namedview
   pagecolor="#ffffff"
   bordercolor="#666666"
   borderopacity="1"
   objecttolerance="10"
   gridtolerance="10"
   guidetolerance="10"
   inkscape:pageopacity="0"
   inkscape:pageshadow="2"
   inkscape:window-width="640"
   inkscape:window-height="480"
   id="namedview13"
   showgrid="false"
   inkscape:zoom="0.36476043"
   inkscape:cx="296"
   inkscape:cy="323.5"
   inkscape:window-x="990"
   inkscape:window-y="356"
   inkscape:window-maximized="0"
   inkscape:current-layer="Layer_1" />
<path
   fill="#FEFEFE"
   opacity="1.000000"
   stroke="none"
   d=" M299.000000,648.000000   C199.333344,648.000000 100.166702,648.000000 1.000040,648.000000   C1.000027,432.333405 1.000027,216.666779 1.000013,1.000127   C198.333237,1.000085 395.666473,1.000085 592.999756,1.000042   C592.999878,216.666550 592.999878,432.333099 592.999939,647.999817   C495.166656,648.000000 397.333344,648.000000 299.000000,648.000000  M194.500000,623.998047   C298.149933,623.998047 401.799866,624.004089 505.449799,623.970642   C508.769196,623.969604 512.118042,623.773743 515.402710,623.310852   C531.095215,621.099548 542.363159,610.202271 544.853271,594.999817   C547.615112,578.138672 540.657227,562.898376 526.286072,556.009521   C521.187317,553.565369 515.319153,552.726257 509.825073,551.161011   C509.825073,527.641296 509.825073,503.909698 509.825073,481.733124   C517.509949,478.678528 524.944397,476.897400 531.067932,473.036926   C542.629211,465.748383 545.508850,453.791718 545.490540,440.859833   C545.451782,413.530914 545.478821,386.201904 545.478821,358.872925   C545.478821,268.553955 545.485657,178.234985 545.468506,87.916008   C545.466736,78.650192 544.391602,69.726631 538.434143,61.959209   C530.257751,51.298714 519.147461,47.973106 506.350708,47.977833   C393.202026,48.019619 280.053375,47.981308 166.904709,48.041153   C157.754410,48.045994 148.579117,48.273449 139.459290,48.970844   C117.782898,50.628448 98.298927,58.248608 81.479134,72.045631   C54.001499,94.585129 41.599976,124.282196 41.565430,159.328049   C41.449303,277.142548 41.383591,394.957581 41.736076,512.771118   C41.771004,524.445374 43.713142,536.394653 46.672318,547.719177   C52.311729,569.300903 64.912804,586.753662 82.337799,600.642883   C98.658943,613.652283 117.310127,621.487244 138.067841,622.839417   C156.492188,624.039734 175.018631,623.673035 194.500000,623.998047  z"
   id="path2" />
<path
   fill="#1A3051"
   opacity="1.000000"
   stroke="none"
   d=" M194.000000,623.998047   C175.018631,623.673035 156.492188,624.039734 138.067841,622.839417   C117.310127,621.487244 98.658943,613.652283 82.337799,600.642883   C64.912804,586.753662 52.311729,569.300903 46.672318,547.719177   C43.713142,536.394653 41.771004,524.445374 41.736076,512.771118   C41.383591,394.957581 41.449303,277.142548 41.565430,159.328049   C41.599976,124.282196 54.001499,94.585129 81.479134,72.045631   C98.298927,58.248608 117.782898,50.628448 139.459290,48.970844   C148.579117,48.273449 157.754410,48.045994 166.904709,48.041153   C280.053375,47.981308 393.202026,48.019619 506.350708,47.977833   C519.147461,47.973106 530.257751,51.298714 538.434143,61.959209   C544.391602,69.726631 545.466736,78.650192 545.468506,87.916008   C545.485657,178.234985 545.478821,268.553955 545.478821,358.872925   C545.478821,386.201904 545.451782,413.530914 545.490540,440.859833   C545.508850,453.791718 542.629211,465.748383 531.067932,473.036926   C524.944397,476.897400 517.509949,478.678528 509.825073,481.733124   C509.825073,503.909698 509.825073,527.641296 509.825073,551.161011   C515.319153,552.726257 521.187317,553.565369 526.286072,556.009521   C540.657227,562.898376 547.615112,578.138672 544.853271,594.999817   C542.363159,610.202271 531.095215,621.099548 515.402710,623.310852   C512.118042,623.773743 508.769196,623.969604 505.449799,623.970642   C401.799866,624.004089 298.149933,623.998047 194.000000,623.998047  M284.500000,479.999176   C240.677673,479.999176 196.855331,479.985870 153.033051,480.027039   C149.880280,480.029999 146.699814,480.234009 143.580063,480.679504   C128.245361,482.869080 116.525932,493.950836 114.049332,508.451416   C111.135246,525.513489 117.965706,541.211121 132.576279,547.817017   C138.710556,550.590515 146.052048,551.812500 152.849915,551.830933   C245.825806,552.083069 338.802612,552.000732 431.779205,552.000732   C433.556976,552.000732 435.334747,552.000732 437.225525,552.000732   C437.225525,527.744141 437.225525,503.997162 437.225525,479.999176   C386.455139,479.999176 335.977570,479.999176 284.500000,479.999176  M194.927002,225.821594   C198.974274,226.548050 203.020401,227.900330 207.069000,227.907852   C276.699646,228.037354 346.330566,228.003006 415.961426,227.989609   C417.787781,227.989258 419.640503,227.986679 421.436066,227.702179   C430.399323,226.281937 435.796936,221.216583 436.971252,213.265533   C438.851074,200.537582 430.935791,192.017166 417.039368,192.011719   C346.742188,191.984207 276.444977,191.997055 206.147781,192.011108   C204.487747,192.011444 202.806107,192.053970 201.171402,192.311157   C193.109131,193.579620 187.658981,198.458038 186.183060,205.613174   C184.465652,213.938995 187.279617,220.825745 194.927002,225.821594  M187.761993,290.478851   C191.389053,297.965607 198.011948,299.961517 205.563782,299.980225   C228.550888,300.037201 251.538239,300.000885 274.525482,300.000916   C321.832581,300.000916 369.139648,299.999969 416.446747,300.002106   C422.046143,300.002350 427.425385,299.237549 431.751038,295.236206   C436.921143,290.453766 438.735901,282.142944 436.175934,275.444000   C433.081573,267.346619 426.644348,264.064636 418.555420,264.054321   C347.095184,263.963043 275.634552,263.909454 204.174591,264.079987   C189.787598,264.114319 182.240494,276.160187 187.761993,290.478851  z"
   id="path4" />
<path
   fill="#FEFFFF"
   opacity="1.000000"
   stroke="none"
   d=" M285.000000,479.999176   C335.977570,479.999176 386.455139,479.999176 437.225525,479.999176   C437.225525,503.997162 437.225525,527.744141 437.225525,552.000732   C435.334747,552.000732 433.556976,552.000732 431.779205,552.000732   C338.802612,552.000732 245.825806,552.083069 152.849915,551.830933   C146.052048,551.812500 138.710556,550.590515 132.576279,547.817017   C117.965706,541.211121 111.135246,525.513489 114.049332,508.451416   C116.525932,493.950836 128.245361,482.869080 143.580063,480.679504   C146.699814,480.234009 149.880280,480.029999 153.033051,480.027039   C196.855331,479.985870 240.677673,479.999176 285.000000,479.999176  z"
   id="path6" />
<path
   fill="#FEFEFF"
   opacity="1.000000"
   stroke="none"
   d=" M194.601120,225.619537   C187.279617,220.825745 184.465652,213.938995 186.183060,205.613174   C187.658981,198.458038 193.109131,193.579620 201.171402,192.311157   C202.806107,192.053970 204.487747,192.011444 206.147781,192.011108   C276.444977,191.997055 346.742188,191.984207 417.039368,192.011719   C430.935791,192.017166 438.851074,200.537582 436.971252,213.265533   C435.796936,221.216583 430.399323,226.281937 421.436066,227.702179   C419.640503,227.986679 417.787781,227.989258 415.961426,227.989609   C346.330566,228.003006 276.699646,228.037354 207.069000,227.907852   C203.020401,227.900330 198.974274,226.548050 194.601120,225.619537  z"
   id="path8" />
<path
   fill="#FEFEFF"
   opacity="1.000000"
   stroke="none"
   d=" M187.567688,290.135376   C182.240494,276.160187 189.787598,264.114319 204.174591,264.079987   C275.634552,263.909454 347.095184,263.963043 418.555420,264.054321   C426.644348,264.064636 433.081573,267.346619 436.175934,275.444000   C438.735901,282.142944 436.921143,290.453766 431.751038,295.236206   C427.425385,299.237549 422.046143,300.002350 416.446747,300.002106   C369.139648,299.999969 321.832581,300.000916 274.525482,300.000916   C251.538239,300.000885 228.550888,300.037201 205.563782,299.980225   C198.011948,299.961517 191.389053,297.965607 187.567688,290.135376  z"
   id="path10" />
</svg>