<svg version="1.1" id="Layer_1" xmlns="http://www.w3.org/2000/svg" xmlns:xlink="http://www.w3.org/1999/xlink" x="0px" y="0px"
	 width="100%" viewBox="0 0 602 664" enable-background="new 0 0 602 664" xml:space="preserve">
<path fill="#FFFFFF" opacity="1.000000" stroke="none" 
	d="
M404.000000,665.000000 
	C269.333344,665.000000 135.166718,665.000000 1.000054,665.000000 
	C1.000036,443.666718 1.000036,222.333466 1.000018,1.000143 
	C201.666565,1.000095 402.333130,1.000095 602.999756,1.000048 
	C602.999878,222.333191 602.999878,443.666382 602.999939,664.999756 
	C536.833313,665.000000 470.666656,665.000000 404.000000,665.000000 
M487.500000,625.000366 
	C502.832520,625.000122 518.166748,625.144165 533.497131,624.965454 
	C555.819885,624.705200 570.488647,608.912659 569.171204,586.606873 
	C568.710571,578.807129 568.076782,570.993469 567.002258,563.258301 
	C561.489075,523.570068 543.568604,489.974060 515.726440,461.634705 
	C493.530487,439.042419 466.574432,424.348877 436.103302,415.897247 
	C423.083130,412.285889 414.450012,416.930664 411.247101,429.938782 
	C404.125122,458.863647 397.092896,487.810608 390.018829,516.747314 
	C383.927063,541.665833 377.827972,566.582642 371.520844,592.363892 
	C371.114258,590.846191 370.946320,590.219543 370.778473,589.592834 
	C358.904907,545.257385 346.994141,500.931763 335.274078,456.555786 
	C334.721954,454.465179 335.254303,451.590149 336.320831,449.652405 
	C342.416504,438.577301 349.000854,427.769440 355.012909,416.651093 
	C356.583862,413.745880 357.579651,409.991119 357.330688,406.742126 
	C356.606995,397.297272 348.515991,391.084290 337.604462,391.018707 
	C324.272644,390.938568 310.939514,390.926910 297.607819,391.017731 
	C280.377869,391.135132 272.668488,404.148376 280.999207,419.168549 
	C286.566650,429.206604 292.605774,438.985962 298.040222,449.092712 
	C299.286407,451.410278 299.801025,454.824799 299.153137,457.349884 
	C291.509125,487.143738 283.594330,516.868286 275.719543,546.602783 
	C271.752441,561.582153 267.721741,576.544678 263.481049,592.407959 
	C256.808838,565.106506 250.377411,538.785950 243.943741,512.465942 
	C237.225876,484.983368 230.540024,457.492889 223.771713,430.022736 
	C220.582336,417.078217 211.768799,411.992126 198.946091,415.973022 
	C190.222916,418.681183 181.460648,421.460480 173.091446,425.077057 
	C139.370041,439.649078 113.092438,463.003571 93.461761,493.930542 
	C79.137001,516.498291 70.423843,541.168701 67.306572,567.642700 
	C66.108299,577.819275 64.984314,588.487244 66.732071,598.420044 
	C69.683289,615.192322 84.026199,624.966675 102.334854,624.983337 
	C155.280411,625.031555 208.226059,625.000366 261.171661,625.000366 
	C304.783539,625.000366 348.395447,625.000366 392.007324,625.000366 
	C423.504883,625.000366 455.002441,625.000366 487.500000,625.000366 
M175.249954,170.838074 
	C174.718506,177.638199 173.874634,184.430817 173.710770,191.239792 
	C173.069855,217.870499 179.349564,243.023834 193.137268,265.637817 
	C216.764267,304.389832 250.863388,328.733032 296.331909,335.250366 
	C337.029114,341.083771 374.347046,332.104767 406.407440,305.909119 
	C451.552826,269.022125 469.025330,220.895813 458.344666,163.983139 
	C450.820068,123.887833 428.329132,92.362587 393.357117,70.850655 
	C350.218536,44.315319 304.379974,41.170135 258.610077,61.783821 
	C212.300049,82.640778 184.435165,119.518448 175.249954,170.838074 
z"/>
<path fill="#1B3051" opacity="1.000000" stroke="none" 
	d="
M487.000000,625.000366 
	C455.002441,625.000366 423.504883,625.000366 392.007324,625.000366 
	C348.395447,625.000366 304.783539,625.000366 261.171661,625.000366 
	C208.226059,625.000366 155.280411,625.031555 102.334854,624.983337 
	C84.026199,624.966675 69.683289,615.192322 66.732071,598.420044 
	C64.984314,588.487244 66.108299,577.819275 67.306572,567.642700 
	C70.423843,541.168701 79.137001,516.498291 93.461761,493.930542 
	C113.092438,463.003571 139.370041,439.649078 173.091446,425.077057 
	C181.460648,421.460480 190.222916,418.681183 198.946091,415.973022 
	C211.768799,411.992126 220.582336,417.078217 223.771713,430.022736 
	C230.540024,457.492889 237.225876,484.983368 243.943741,512.465942 
	C250.377411,538.785950 256.808838,565.106506 263.481049,592.407959 
	C267.721741,576.544678 271.752441,561.582153 275.719543,546.602783 
	C283.594330,516.868286 291.509125,487.143738 299.153137,457.349884 
	C299.801025,454.824799 299.286407,451.410278 298.040222,449.092712 
	C292.605774,438.985962 286.566650,429.206604 280.999207,419.168549 
	C272.668488,404.148376 280.377869,391.135132 297.607819,391.017731 
	C310.939514,390.926910 324.272644,390.938568 337.604462,391.018707 
	C348.515991,391.084290 356.606995,397.297272 357.330688,406.742126 
	C357.579651,409.991119 356.583862,413.745880 355.012909,416.651093 
	C349.000854,427.769440 342.416504,438.577301 336.320831,449.652405 
	C335.254303,451.590149 334.721954,454.465179 335.274078,456.555786 
	C346.994141,500.931763 358.904907,545.257385 370.778473,589.592834 
	C370.946320,590.219543 371.114258,590.846191 371.520844,592.363892 
	C377.827972,566.582642 383.927063,541.665833 390.018829,516.747314 
	C397.092896,487.810608 404.125122,458.863647 411.247101,429.938782 
	C414.450012,416.930664 423.083130,412.285889 436.103302,415.897247 
	C466.574432,424.348877 493.530487,439.042419 515.726440,461.634705 
	C543.568604,489.974060 561.489075,523.570068 567.002258,563.258301 
	C568.076782,570.993469 568.710571,578.807129 569.171204,586.606873 
	C570.488647,608.912659 555.819885,624.705200 533.497131,624.965454 
	C518.166748,625.144165 502.832520,625.000122 487.000000,625.000366 
z"/>
<path fill="#1A3051" opacity="1.000000" stroke="none" 
	d="
M175.337891,170.407990 
	C184.435165,119.518448 212.300049,82.640778 258.610077,61.783821 
	C304.379974,41.170135 350.218536,44.315319 393.357117,70.850655 
	C428.329132,92.362587 450.820068,123.887833 458.344666,163.983139 
	C469.025330,220.895813 451.552826,269.022125 406.407440,305.909119 
	C374.347046,332.104767 337.029114,341.083771 296.331909,335.250366 
	C250.863388,328.733032 216.764267,304.389832 193.137268,265.637817 
	C179.349564,243.023834 173.069855,217.870499 173.710770,191.239792 
	C173.874634,184.430817 174.718506,177.638199 175.337891,170.407990 
z"/>
</svg>